<?xml version="1.0" standalone="no"?>
<!DOCTYPE svg PUBLIC "-//W3C//DTD SVG 20010904//EN"
 "http://www.w3.org/TR/2001/REC-SVG-20010904/DTD/svg10.dtd">
<svg version="1.0" xmlns="http://www.w3.org/2000/svg"
 width="626.000000pt" height="626.000000pt" viewBox="0 0 626.000000 626.000000"
 preserveAspectRatio="xMidYMid meet">
<metadata>
Created by potrace 1.14, written by Peter Selinger 2001-2017
</metadata>
<g transform="translate(0.000000,626.000000) scale(0.100000,-0.100000)"
fill="#000000" stroke="none">
<path d="M410 3605 c0 -24 -3 -25 -60 -25 l-60 0 0 -35 c0 -31 3 -35 35 -41
32 -6 35 -9 35 -40 0 -27 4 -34 20 -34 13 0 20 -7 20 -20 0 -13 -7 -20 -20
-20 -18 0 -20 -7 -20 -70 l0 -70 -40 0 c-38 0 -40 -2 -40 -30 0 -26 4 -30 28
-30 63 0 102 -12 102 -31 0 -18 12 -19 240 -19 l240 0 0 25 c0 23 -4 25 -40
25 -36 0 -40 3 -40 25 l0 25 -127 1 c-71 1 -118 4 -105 6 20 4 22 10 22 74 0
62 2 69 20 69 13 0 20 7 20 20 0 13 -7 20 -20 20 -17 0 -20 7 -20 40 l0 40
-42 1 -43 2 45 8 c25 4 93 8 153 8 99 1 107 2 107 21 0 14 9 21 35 26 28 5 35
11 35 30 l0 24 -240 0 -240 0 0 -25z"/>
<path d="M1137 3613 c-4 -3 -7 -15 -7 -25 0 -15 -8 -18 -60 -18 l-60 0 0 -34
c0 -31 3 -34 35 -40 32 -6 35 -10 35 -41 0 -31 3 -35 25 -35 18 0 25 -5 25
-20 0 -15 -7 -20 -25 -20 -24 0 -25 -2 -25 -70 l0 -70 -40 0 c-37 0 -40 -2
-40 -29 0 -24 5 -29 31 -35 17 -3 47 -6 65 -6 27 0 34 -4 34 -19 0 -28 46 -33
285 -29 l200 3 3 28 c3 25 1 27 -37 27 -33 0 -40 3 -43 23 -3 21 -8 22 -110
25 l-108 3 0 44 0 45 75 0 c73 0 75 1 75 25 0 18 5 25 20 25 15 0 20 7 20 25
0 25 0 25 -95 25 l-95 0 0 40 c0 39 -1 40 -37 41 l-38 2 45 8 c25 4 91 8 148
8 94 1 102 3 102 20 0 15 10 21 40 26 34 6 40 11 40 31 l0 24 -238 0 c-131 0
-242 -3 -245 -7z"/>
<path d="M1810 3595 c0 -22 -4 -25 -40 -25 -39 0 -40 -1 -40 -34 0 -32 2 -35
40 -41 38 -6 40 -9 40 -41 0 -27 4 -34 20 -34 13 0 20 -7 20 -20 0 -13 -7 -20
-20 -20 -18 0 -20 -7 -20 -69 l0 -70 -42 -3 c-38 -3 -43 -6 -46 -30 -3 -25 0
-27 42 -33 35 -6 46 -12 46 -25 0 -24 27 -30 138 -30 92 0 92 0 92 25 0 21 5
25 30 25 23 0 30 -5 30 -19 0 -25 51 -34 160 -29 74 3 75 4 78 31 3 26 1 27
-37 27 -37 0 -41 3 -41 24 0 21 5 25 38 28 37 3 37 3 40 51 3 45 2 47 -22 47
-19 0 -26 5 -26 20 0 13 7 20 19 20 20 0 31 34 31 96 0 32 -2 34 -35 34 -33 0
-35 2 -35 35 0 19 5 35 10 35 6 0 10 11 10 25 l0 25 -240 0 -240 0 0 -25z
m203 -92 c-7 -2 -21 -2 -30 0 -10 3 -4 5 12 5 17 0 24 -2 18 -5z m87 -44 c0
-26 -4 -29 -30 -29 -26 0 -30 4 -30 28 0 36 5 40 35 34 20 -3 25 -10 25 -33z
m0 -179 c0 -38 -2 -40 -30 -40 -28 0 -30 2 -30 40 0 38 2 40 30 40 28 0 30 -2
30 -40z m-80 -75 c0 -21 -5 -25 -30 -25 -25 0 -30 4 -30 25 0 21 5 25 30 25
25 0 30 -4 30 -25z"/>
<path d="M2530 3595 c0 -22 -4 -25 -40 -25 -39 0 -40 -1 -40 -34 0 -32 2 -35
40 -41 38 -6 40 -9 40 -41 0 -27 4 -34 20 -34 13 0 20 -7 20 -20 0 -13 -7 -20
-20 -20 -18 0 -20 -7 -20 -70 l0 -70 -40 0 c-38 0 -40 -2 -40 -30 0 -27 4 -30
40 -36 29 -5 40 -11 40 -24 0 -10 10 -20 23 -24 12 -3 119 -6 238 -6 l217 0 4
30 c4 24 1 30 -14 30 -13 0 -18 7 -18 25 0 23 4 25 40 25 l40 0 0 50 c0 47 -2
50 -25 50 -18 0 -25 5 -25 20 0 13 7 20 19 20 20 0 31 34 31 96 0 32 -2 34
-35 34 -33 0 -35 2 -35 35 0 19 5 35 10 35 6 0 10 11 10 25 l0 25 -240 0 -240
0 0 -25z m208 -92 c-10 -2 -26 -2 -35 0 -10 3 -2 5 17 5 19 0 27 -2 18 -5z
m82 -44 c0 -24 -4 -29 -25 -29 -22 0 -25 4 -25 34 0 30 2 33 25 28 20 -3 25
-10 25 -33z m0 -179 c0 -36 -2 -40 -25 -40 -22 0 -25 4 -25 40 0 36 3 40 25
40 23 0 25 -4 25 -40z"/>
<path d="M3280 3595 c0 -24 -3 -25 -60 -25 l-60 0 0 -35 c0 -31 3 -35 35 -41
32 -6 35 -9 35 -40 0 -27 4 -34 20 -34 13 0 20 -7 20 -20 0 -13 -7 -20 -20
-20 -18 0 -20 -7 -20 -70 l0 -70 -40 0 c-37 0 -40 -2 -40 -29 0 -33 17 -41 88
-41 34 0 42 -3 42 -19 0 -27 34 -31 271 -31 l209 0 0 30 c0 28 -2 30 -40 30
-36 0 -40 3 -40 25 l0 25 -108 0 -107 0 3 45 4 45 74 0 c72 0 74 1 74 25 0 18
5 25 20 25 15 0 20 7 20 25 0 25 0 25 -95 25 l-95 0 0 40 0 40 -42 1 -43 2 45
8 c25 4 93 8 153 8 99 1 107 2 107 21 0 14 9 21 35 26 28 5 35 11 35 30 l0 24
-240 0 -240 0 0 -25z"/>
<path d="M3960 3595 c0 -22 -4 -25 -35 -25 -33 0 -35 -2 -35 -35 0 -31 3 -35
35 -41 32 -6 35 -9 35 -40 0 -27 4 -34 20 -34 13 0 20 -7 20 -20 0 -13 -7 -20
-20 -20 -18 0 -20 -7 -20 -70 l0 -70 -40 0 c-38 0 -40 -2 -40 -29 0 -26 4 -30
40 -36 30 -5 40 -11 40 -25 0 -23 53 -33 160 -28 72 3 75 4 78 29 3 22 7 25
28 21 14 -3 24 -11 24 -22 0 -23 37 -30 151 -30 l89 0 0 30 c0 28 -2 30 -40
30 -36 0 -40 3 -40 25 0 23 4 25 40 25 l40 0 0 50 c0 47 -2 50 -25 50 -18 0
-25 5 -25 20 0 13 7 20 20 20 26 0 36 27 32 85 -4 44 -5 45 -38 45 -32 0 -34
2 -34 35 0 19 5 35 10 35 6 0 10 11 10 25 l0 25 -240 0 -240 0 0 -25z m208
-92 c-10 -2 -26 -2 -35 0 -10 3 -2 5 17 5 19 0 27 -2 18 -5z m73 -13 c5 0 9
-13 9 -30 0 -25 -4 -30 -25 -30 -22 0 -25 4 -25 36 0 29 3 35 16 30 9 -3 20
-6 25 -6z m9 -210 c0 -36 -2 -40 -25 -40 -22 0 -25 4 -25 40 0 36 3 40 25 40
23 0 25 -4 25 -40z m-80 -75 c0 -20 -5 -25 -25 -25 -20 0 -25 5 -25 25 0 20 5
25 25 25 20 0 25 -5 25 -25z"/>
<path d="M4690 3595 c0 -22 -4 -25 -40 -25 -39 0 -40 -1 -40 -34 0 -32 2 -35
40 -41 38 -6 40 -9 40 -41 0 -27 4 -34 20 -34 13 0 20 -7 20 -20 0 -13 -7 -20
-20 -20 -18 0 -20 -7 -20 -70 l0 -70 -40 0 c-37 0 -40 -2 -40 -29 0 -33 17
-41 88 -41 34 0 42 -3 42 -19 0 -28 24 -31 236 -31 l192 0 4 30 c4 24 1 30
-14 30 -13 0 -18 7 -18 25 0 23 4 25 40 25 l40 0 0 70 c0 63 2 70 20 70 15 0
20 7 20 25 0 18 -5 25 -20 25 -17 0 -20 7 -20 40 0 39 -1 40 -35 40 -32 0 -35
2 -35 30 0 25 4 30 35 36 29 5 35 11 35 30 l0 25 -117 -3 c-114 -3 -118 -4
-121 -25 -5 -35 -52 -32 -52 2 l0 25 -120 0 -120 0 0 -25z m220 -66 c0 -26 -3
-29 -30 -29 -27 0 -30 3 -30 29 0 23 5 30 23 33 31 6 37 1 37 -33z m70 -75 c0
-27 4 -34 20 -34 13 0 20 -7 20 -20 0 -13 -7 -20 -20 -20 -18 0 -20 -7 -20
-70 0 -68 -1 -70 -25 -70 -24 0 -25 2 -25 65 0 58 2 65 20 65 15 0 20 7 20 25
0 18 -5 25 -20 25 -17 0 -20 7 -20 39 0 35 2 38 25 33 21 -4 25 -10 25 -38z"/>
<path d="M5500 3595 c0 -24 -3 -25 -60 -25 l-60 0 0 -35 c0 -31 3 -35 35 -41
32 -6 35 -9 35 -40 0 -27 4 -34 20 -34 29 0 27 -37 -2 -43 -20 -4 -19 -4 5 -6
22 -1 27 -6 27 -26 l0 -25 120 0 120 0 0 -39 0 -38 -52 -7 c-29 -3 -99 -6
-154 -6 -128 0 -164 -7 -164 -30 0 -13 11 -20 40 -25 29 -5 40 -12 40 -25 0
-26 36 -30 270 -30 l208 0 4 30 c4 24 1 30 -14 30 -13 0 -18 7 -18 25 0 23 4
25 40 25 l40 0 0 95 0 95 -145 0 -145 0 0 40 c0 39 -1 40 -37 41 l-38 1 40 9
c22 4 88 8 148 8 99 1 107 2 107 21 0 14 9 21 35 26 28 5 35 11 35 30 l0 24
-240 0 -240 0 0 -25z"/>
</g>
</svg>
